<?xml version="1.0" encoding="UTF-8"?>
<svg id="Layer_1" data-name="Layer 1" xmlns="http://www.w3.org/2000/svg" xmlns:xlink="http://www.w3.org/1999/xlink" viewBox="0 0 100 50">
  <defs>
    <style>
      .cls-1, .cls-2, .cls-3, .cls-4 {
        fill: #fff;
      }

      .cls-2 {
        stroke: #fff;
        stroke-miterlimit: 10;
        stroke-width: .25px;
      }

      .cls-3, .cls-5, .cls-6, .cls-4 {
        fill-rule: evenodd;
      }

      .cls-5 {
        fill: #d60505;
      }

      .cls-6 {
        fill: url(#linear-gradient);
      }

      .cls-4 {
        opacity: .22;
      }
    </style>
    <linearGradient id="linear-gradient" x1=".31" y1="19.94" x2="23.08" y2="19.94" gradientUnits="userSpaceOnUse">
      <stop offset="0" stop-color="#d60505"/>
      <stop offset="1" stop-color="#d60505"/>
    </linearGradient>
  </defs>
  <g>
    <path id="Path_136741" data-name="Path 136741" class="cls-1" d="M32.84,9.48c2.57-.24,5.15-.33,7.74-.28,5.54,0,7.33,1.49,7.33,6.87s-1.8,6.87-6.84,6.87c-1.46,0-2.91-.08-4.36-.25v8.14h-3.87V9.48Zm7.64,10.3c2.69-.03,3.53-.77,3.53-3.71s-.84-3.68-3.53-3.68h-3.78v7.4h3.78Z"/>
    <path id="Path_136742" data-name="Path 136742" class="cls-1" d="M71.63,30.59c-2.82,.25-6.28,.25-9.41,.25-2.82,0-4.55-1.55-4.58-4.05V13.41c.03-2.51,1.8-4.05,4.58-4.05,3.13,0,6.59,0,9.41,.25l-.19,2.97h-8.36c-1.11,0-1.55,.46-1.55,1.79v3.74h8.76v2.97h-8.76v4.77c0,1.33,.43,1.79,1.55,1.79h8.36l.19,2.94Z"/>
    <path id="Path_136743" data-name="Path 136743" class="cls-1" d="M90.22,21.18l-4.77,9.66h-4.08l5.66-10.99-5.26-10.37h4.05l4.36,8.91h.65l4.36-8.91h4.08l-5.29,10.37,5.7,10.99h-4.12l-4.77-9.66h-.59Z"/>
    <g>
      <path id="Path_136725" data-name="Path 136725" class="cls-5" d="M22.04,27l-2.6-4.81-1.38,2.98,3.97,1.84Z"/>
      <path id="Path_136726" data-name="Path 136726" class="cls-3" d="M17.73,21.06l-1.39,3.01-4.53-2.09,1.39-3.01s1.39-3.01,3.65-1.96c2.26,1.05,.87,4.06,.87,4.06Z"/>
      <path id="Path_136726-2" data-name="Path 136726" class="cls-4" d="M17.37,21.17l-1.39,3.01-4.53-2.09,1.39-3.01s1.39-3.01,3.65-1.96c2.26,1.05,.87,4.06,.87,4.06Z"/>
      <path id="Path_136727" data-name="Path 136727" class="cls-6" d="M17.71,30.5v-.03c.19,.25,.49,.38,.8,.36h4.57L6.79,23.3l2.78-6.02s1.94-4.19,5.64-4.16l-2.02-3.74c-.45-.45-1.18-.46-1.64,0,0,0,0,0,0,0C7.93,16.1,4,23.42,.38,30.11c-.21,.36,.08,.72,.8,.72H6.2c.42,0,.8-.15,.89-.36v.03l1.05-2.08h8.44l1.14,2.08Z"/>
    </g>
  </g>
  <g id="Group_86893" data-name="Group 86893">
    <path id="Path_136729" data-name="Path 136729" class="cls-2" d="M6.57,40.82v-5.03h.68v5.03h-.68Z"/>
    <path id="Path_136730" data-name="Path 136730" class="cls-2" d="M16.59,40.82v-4.42h-1.59v-.61h3.86v.61h-1.59v4.42h-.69Z"/>
    <path id="Path_136731" data-name="Path 136731" class="cls-2" d="M33.04,39.17h.66c0,.33,.12,.65,.36,.87,.26,.23,.6,.34,.94,.32,.33,.02,.65-.07,.92-.25,.22-.15,.34-.4,.34-.67,0-.38-.42-.68-1.26-.88-.05-.01-.09-.02-.12-.03-.68-.16-1.13-.34-1.35-.54-.23-.22-.35-.53-.33-.85-.01-.42,.17-.82,.49-1.08,.37-.29,.84-.43,1.31-.41,.48-.03,.94,.13,1.31,.43,.33,.3,.5,.73,.49,1.18h-.65c0-.29-.13-.57-.34-.77-.24-.19-.54-.29-.85-.27-.28-.01-.57,.06-.8,.22-.19,.13-.31,.35-.3,.58,0,.39,.41,.68,1.24,.87l.28,.07,.07,.02c.38,.06,.75,.21,1.08,.42,.13,.11,.24,.25,.31,.41,.07,.17,.11,.36,.11,.54,.02,.45-.18,.87-.52,1.16-.4,.31-.9,.46-1.41,.43-.52,.03-1.03-.13-1.43-.46-.36-.35-.56-.83-.55-1.33Z"/>
    <path id="Path_136732" data-name="Path 136732" class="cls-2" d="M42.27,38.99c-.03-.52,.13-1.03,.46-1.43,.73-.68,1.86-.68,2.58,0,.61,.86,.61,2.01,0,2.87-.73,.68-1.86,.68-2.58,0-.33-.4-.49-.92-.46-1.44Zm.63,0c-.02,.37,.08,.74,.29,1.04,.21,.25,.52,.38,.83,.36,.32,.02,.62-.12,.83-.36,.38-.64,.38-1.44,0-2.08-.2-.25-.51-.38-.83-.36-.32-.02-.63,.11-.84,.36-.21,.3-.32,.67-.29,1.04Z"/>
    <path id="Path_136733" data-name="Path 136733" class="cls-2" d="M51.09,40.82v-5.03h.62v5.03h-.62Z"/>
    <path id="Path_136734" data-name="Path 136734" class="cls-2" d="M57.66,37.16v2.24c-.02,.26,.03,.52,.17,.75,.15,.15,.36,.23,.57,.21,.3,.02,.6-.09,.81-.31,.2-.26,.3-.59,.27-.92v-1.97h.61v3.66h-.59v-.55c-.12,.2-.29,.37-.49,.48-.22,.11-.47,.17-.71,.16-.23,0-.46-.04-.67-.13-.18-.08-.33-.2-.43-.37-.06-.1-.1-.2-.12-.31-.03-.19-.04-.38-.04-.57v-2.37h.62Z"/>
    <path id="Path_136735" data-name="Path 136735" class="cls-2" d="M66.58,39.9c-.01,.11,.01,.23,.07,.33,.07,.06,.16,.09,.26,.08,.04,0,.08,0,.13,0s.12,0,.2-.01v.52c-.1,.02-.19,.03-.27,.04-.07,0-.14,.01-.22,.01-.22,.02-.43-.04-.61-.17-.13-.17-.2-.38-.17-.59v-2.46h-.55v-.49h.55v-1.02h.61v1.02h.66v.49h-.66v2.25Z"/>
    <path id="Path_136736" data-name="Path 136736" class="cls-2" d="M72.56,36.49v-.7h.62v.7h-.62Zm0,4.33v-3.66h.62v3.66h-.62Z"/>
    <path id="Path_136737" data-name="Path 136737" class="cls-2" d="M78.49,38.99c-.03-.52,.13-1.03,.46-1.43,.73-.68,1.86-.68,2.58,0,.61,.86,.61,2.01,0,2.87-.73,.68-1.86,.68-2.58,0-.33-.4-.49-.92-.46-1.44Zm.63,0c-.02,.37,.08,.74,.29,1.04,.21,.25,.52,.38,.83,.36,.32,.02,.62-.12,.83-.36,.38-.64,.38-1.44,0-2.08-.2-.25-.51-.38-.83-.36-.32-.02-.63,.11-.84,.36-.21,.3-.32,.67-.29,1.04h0Z"/>
    <path id="Path_136738" data-name="Path 136738" class="cls-2" d="M89.75,40.82v-2.25c.02-.26-.03-.52-.17-.75-.15-.15-.36-.23-.57-.21-.3-.02-.59,.09-.8,.29-.2,.23-.3,.53-.29,.83v2.08h-.61v-3.66h.59v.53c.13-.2,.3-.36,.5-.47,.21-.11,.44-.16,.67-.15,.24,0,.48,.04,.7,.12,.18,.08,.33,.21,.44,.37,.06,.1,.1,.2,.12,.31,.03,.19,.04,.38,.04,.57v2.37h-.62Z"/>
    <path id="Path_136739" data-name="Path 136739" class="cls-2" d="M95.7,39.63h.59c0,.22,.1,.42,.27,.56,.19,.14,.43,.21,.66,.19,.22,.01,.44-.04,.63-.16,.15-.09,.23-.25,.23-.43,0-.11-.03-.23-.11-.31-.13-.1-.28-.16-.45-.19l-.69-.18c-.3-.05-.58-.18-.81-.37-.16-.18-.24-.42-.23-.66-.01-.3,.13-.59,.37-.77,.29-.2,.65-.31,1.01-.28,.37-.02,.74,.09,1.04,.3,.25,.19,.4,.5,.39,.82h0s-.6,.01-.6,.01c0-.18-.09-.34-.24-.45-.17-.11-.38-.17-.59-.16-.2-.01-.39,.03-.57,.13-.13,.08-.2,.23-.19,.38,0,.11,.04,.21,.12,.28,.14,.09,.29,.15,.45,.18l.59,.14c.32,.05,.62,.18,.87,.38,.17,.18,.26,.42,.24,.67,.02,.34-.13,.67-.4,.89-.33,.23-.72,.34-1.12,.32-.39,.03-.77-.09-1.08-.33-.26-.25-.4-.6-.39-.96Z"/>
  </g>
</svg>